<svg xmlns="http://www.w3.org/2000/svg" viewBox="0 0 512 512"><path fill="#FAFAFA" d="M448.5 112c0-26.2-21.3-47.5-47.5-47.5H112c-26.2 0-47.5 21.3-47.5 47.5v289c0 26.2 21.3 47.5 47.5 47.5h289c26.2 0 47.5-21.3 47.5-47.5V112zM257 175.8c44.2 0 80 35.8 80 80s-35.8 80-80 80-80-35.8-80-80 35.8-80 80-80zm159.5-15.3c0 8.8-7.2 16-16 16h-48c-8.8 0-16-7.2-16-16v-48c0-8.8 7.2-16 16-16h48c8.8 0 16 7.2 16 16v48zm-15 256h-288c-8.8 0-17-8.2-17-17v-175h53.1c-3 10-4.6 20.6-4.6 31.6 0 29.9 11.7 57.9 32.8 79.1s49.3 32.7 79.2 32.7 58-11.7 79.2-32.8 32.8-49 32.8-79c0-10.9-1.6-21.6-4.6-31.6h52.1v175c0 8.8-6.2 17-15 17z"/></svg>