<svg xmlns="http://www.w3.org/2000/svg" xmlns:xlink="http://www.w3.org/1999/xlink" viewBox="1513.1 -0.6 2416.2 2428.2"><g fill="#FAFAFA"><path d="M3316.2 1092.7c-.9-151.2-58.9-302.1-174-417.3C3029.8 563 2880.3 501 2721.2 501c-159 0-308.5 61.9-421 174.4-112.4 112.4-174.3 261.9-174.3 420.8V1854.5c0 32.7 26.5 59.2 59.2 59.2s59.2-26.5 59.2-59.2v-401.8c17 22.6 35.6 44.2 56 64.6l379.1 379.1c11.1 11.1 26.2 17.3 41.9 17.3s30.8-6.2 41.9-17.3l379.1-379.1c20.5-20.5 39.1-42.2 56-64.8v402c0 32.7 26.5 59.2 59.2 59.2s59.2-26.5 59.2-59.2v-758.2c-.1-1.1-.4-2.3-.5-3.6zm-932.2 341c-90.1-90.1-139.7-209.8-139.7-337.2s49.6-247.2 139.7-337.3c90.1-90.1 209.8-139.7 337.2-139.7 127.4 0 247.2 49.6 337.2 139.7 186 186 186 488.5 0 674.5l-337.3 337.2-337.1-337.2z"/><path d="M2959.1 1250.6c71.2-109.8 58.8-258.4-37.4-354.6-53.5-53.5-124.7-83-200.4-83s-146.9 29.5-200.5 83c-53.5 53.5-83 124.7-83 200.4s29.4 146.9 83 200.4c53.5 53.5 124.7 83 200.4 83 55.6 0 108.7-15.9 154.2-45.6l50.3 50.3c11.6 11.6 26.7 17.3 41.9 17.3s30.3-5.8 41.9-17.3c23.1-23.1 23.1-60.6 0-83.7l-50.4-50.2zm-354.6-37.4c-64.3-64.3-64.3-169.1.1-233.4 31.2-31.2 72.7-48.4 116.8-48.4 44.1 0 85.5 17.1 116.7 48.3 64.4 64.4 64.4 169.1 0 233.5-31.2 31.2-72.6 48.4-116.8 48.4-44.2-.1-85.6-17.2-116.8-48.4z"/></g><defs><circle id="a" cx="2721.3" cy="1207.5" r="1148.9"/></defs><clipPath id="b"><use xlink:href="#a" overflow="visible"/></clipPath><linearGradient id="c" gradientUnits="userSpaceOnUse" x1="2057.88" y1="701.131" x2="3849.825" y2="2493.076"><stop offset="0" stop-color="#fafafa"/><stop offset=".013" stop-color="#fafafa" stop-opacity=".987"/><stop offset="1" stop-color="#fff" stop-opacity="0"/></linearGradient><path opacity=".2" clip-path="url(#b)" fill="url(#c)" d="M4933.6 2710.3c-.9-151.3-58.9-302.2-174-417.4-2.7-2.7-5.6-5.3-8.3-7.9-2.6-2.7-5-5.4-7.7-8.1-2.7-2.7-5.6-5.3-8.3-7.9-2.6-2.7-5-5.4-7.7-8.1-2.7-2.7-5.6-5.3-8.3-7.9-2.6-2.7-5-5.4-7.7-8.1-2.7-2.7-5.6-5.3-8.3-7.9-2.6-2.7-5-5.4-7.7-8.1-2.7-2.7-5.6-5.3-8.3-7.9-2.6-2.7-5-5.4-7.7-8.1-2.7-2.7-5.6-5.3-8.3-7.9-2.6-2.7-5-5.4-7.7-8.1-2.7-2.7-5.6-5.3-8.3-7.9-2.6-2.7-5-5.4-7.7-8.1-2.7-2.7-5.6-5.3-8.3-7.9-2.6-2.7-5-5.4-7.7-8.1-2.7-2.7-5.6-5.3-8.3-7.9-2.6-2.7-5-5.4-7.7-8.1-2.7-2.7-5.6-5.3-8.3-7.9-2.6-2.7-5-5.4-7.7-8.1-2.7-2.7-5.6-5.3-8.3-7.9-2.6-2.7-5-5.4-7.7-8.1-2.7-2.7-5.6-5.3-8.3-7.9-2.6-2.7-5-5.4-7.7-8.1-2.7-2.7-5.6-5.3-8.3-7.9-2.6-2.7-5-5.4-7.7-8.1-2.7-2.7-5.6-5.3-8.3-7.9-2.6-2.7-5-5.4-7.7-8.1-2.7-2.7-5.6-5.3-8.3-7.9-2.6-2.7-5-5.4-7.7-8.1-2.7-2.7-5.6-5.3-8.3-7.9-2.6-2.7-5-5.4-7.7-8.1-2.7-2.7-5.6-5.3-8.3-7.9-2.6-2.7-5-5.4-7.7-8.1-2.7-2.7-5.6-5.3-8.3-7.9-2.6-2.7-5-5.4-7.7-8.1-2.7-2.7-5.6-5.3-8.3-7.9-2.6-2.7-5-5.4-7.7-8.1-2.7-2.7-5.6-5.3-8.3-7.9-2.6-2.7-5-5.4-7.7-8.1-2.7-2.7-5.6-5.3-8.3-7.9-2.6-2.7-5-5.4-7.7-8.1-2.7-2.7-5.6-5.3-8.3-7.9-2.6-2.7-5-5.4-7.7-8.1-2.7-2.7-5.6-5.3-8.3-7.9-2.6-2.7-5-5.4-7.7-8.1-2.7-2.7-5.6-5.3-8.3-7.9-2.6-2.7-5-5.4-7.7-8.1-2.7-2.7-5.6-5.3-8.3-7.9-2.6-2.7-5-5.4-7.7-8.1-2.7-2.7-5.6-5.3-8.3-7.9-2.6-2.7-5-5.4-7.7-8.1-2.7-2.7-5.6-5.3-8.3-7.9-2.6-2.7-5-5.4-7.7-8.1-2.7-2.7-5.6-5.3-8.3-7.9-2.6-2.7-5-5.4-7.7-8.1-2.7-2.7-5.6-5.3-8.3-7.9-2.6-2.7-5-5.4-7.7-8.1-2.7-2.7-5.6-5.3-8.3-7.9-2.6-2.7-5-5.4-7.7-8.1-2.7-2.7-5.6-5.3-8.3-7.9-2.6-2.7-5-5.4-7.7-8.1-2.7-2.7-5.6-5.3-8.3-7.9-2.6-2.7-5-5.4-7.7-8.1-2.7-2.7-5.6-5.3-8.3-7.9-2.6-2.7-5-5.4-7.7-8.1-2.7-2.7-5.6-5.3-8.3-7.9-2.6-2.7-5-5.4-7.7-8.1-2.7-2.7-5.6-5.3-8.3-7.9-2.6-2.7-5-5.4-7.7-8.1-2.7-2.7-5.6-5.3-8.3-7.9-2.6-2.7-5-5.4-7.7-8.1-2.7-2.7-5.6-5.3-8.3-7.9-2.6-2.7-5-5.4-7.7-8.1-2.7-2.7-5.6-5.3-8.3-7.9-2.6-2.7-5-5.4-7.7-8.1-2.7-2.7-5.6-5.3-8.3-7.9-2.6-2.7-5-5.4-7.7-8.1-2.7-2.7-5.6-5.3-8.3-7.9-2.6-2.7-5-5.4-7.7-8.1-2.7-2.7-5.6-5.3-8.3-7.9-2.6-2.7-5-5.4-7.7-8.1-2.7-2.7-5.6-5.3-8.3-7.9-2.6-2.7-5-5.4-7.7-8.1-2.7-2.7-5.6-5.3-8.3-7.9-2.6-2.7-5-5.4-7.7-8.1-2.7-2.7-5.6-5.3-8.3-7.9-2.6-2.7-5-5.4-7.7-8.1-2.7-2.7-5.6-5.3-8.3-7.9-2.6-2.7-5-5.4-7.7-8.1-2.7-2.7-5.6-5.3-8.3-7.9-2.6-2.7-5-5.4-7.7-8.1-2.7-2.7-5.6-5.3-8.3-7.9-2.6-2.7-5-5.4-7.7-8.1-2.7-2.7-5.6-5.3-8.3-7.9-2.6-2.7-5-5.4-7.7-8.1-2.7-2.7-5.6-5.3-8.3-7.9-2.6-2.7-5-5.4-7.7-8.1-2.7-2.7-5.6-5.3-8.3-7.9-2.6-2.7-5-5.4-7.7-8.1-2.7-2.7-5.6-5.3-8.3-7.9-2.6-2.7-5-5.4-7.7-8.1-2.7-2.7-5.6-5.3-8.3-7.9-2.6-2.7-5-5.4-7.7-8.1-2.7-2.7-5.6-5.3-8.3-7.9-2.6-2.7-5-5.4-7.7-8.1-2.7-2.7-5.6-5.3-8.3-7.9-2.6-2.7-5-5.4-7.7-8.1-2.7-2.7-5.6-5.3-8.3-7.9-2.6-2.7-5-5.4-7.7-8.1-2.7-2.7-5.6-5.3-8.3-7.9-2.6-2.7-5-5.4-7.7-8.1-2.7-2.7-5.6-5.3-8.3-7.9-2.6-2.7-5-5.4-7.7-8.1-2.7-2.7-5.6-5.3-8.3-7.9-2.6-2.7-5-5.4-7.7-8.1-2.7-2.7-5.6-5.3-8.3-7.9-2.6-2.7-5-5.4-7.7-8.1-2.7-2.7-5.6-5.3-8.3-7.9-2.6-2.7-5-5.4-7.7-8.1-2.7-2.7-5.6-5.3-8.3-7.9-2.6-2.7-5-5.4-7.7-8.1-2.7-2.7-5.6-5.3-8.3-7.9-2.6-2.7-5-5.4-7.7-8.1-2.7-2.7-5.6-5.3-8.3-7.9-2.6-2.7-5-5.4-7.7-8.1-2.7-2.7-5.6-5.3-8.3-7.9-2.6-2.7-5-5.4-7.7-8.1-2.7-2.7-5.6-5.3-8.3-7.9-2.6-2.7-5-5.4-7.7-8.1-2.7-2.7-5.6-5.3-8.3-7.9-2.6-2.7-5-5.4-7.7-8.1-2.7-2.7-5.6-5.3-8.3-7.9-2.6-2.7-5-5.4-7.7-8.1-2.7-2.7-5.6-5.3-8.3-7.9-2.6-2.7-5-5.4-7.7-8.1-2.7-2.7-5.6-5.3-8.3-7.9-2.6-2.7-5-5.4-7.7-8.1-2.7-2.7-5.6-5.3-8.3-7.9-2.6-2.7-5-5.4-7.7-8.1-2.7-2.7-5.6-5.3-8.3-7.9-2.6-2.7-5-5.4-7.7-8.1-2.7-2.7-5.6-5.3-8.3-7.9-2.6-2.7-5-5.4-7.7-8.1-2.7-2.7-5.6-5.3-8.3-7.9-2.6-2.7-5-5.4-7.7-8.1-2.7-2.7-5.6-5.3-8.3-7.9-2.6-2.7-5-5.4-7.7-8.1-2.7-2.7-5.6-5.3-8.3-7.9-2.6-2.7-5-5.4-7.7-8.1-2.7-2.7-5.6-5.3-8.3-7.9-2.6-2.7-5-5.4-7.7-8.1-2.7-2.7-5.6-5.3-8.3-7.9-2.6-2.7-5-5.4-7.7-8.1-2.7-2.7-5.6-5.3-8.3-7.9-2.6-2.7-5-5.4-7.7-8.1-2.7-2.7-5.6-5.3-8.3-7.9-2.6-2.7-5-5.4-7.7-8.1-2.7-2.7-5.6-5.3-8.3-7.9-2.6-2.7-5-5.4-7.7-8.1-2.7-2.7-5.6-5.3-8.3-7.9-2.6-2.7-5-5.4-7.7-8.1-2.7-2.7-5.6-5.3-8.3-7.9-2.6-2.7-5-5.4-7.7-8.1-2.7-2.7-5.6-5.3-8.3-7.9-2.6-2.7-5-5.4-7.7-8.1-2.7-2.7-5.6-5.3-8.3-7.9-2.6-2.7-5-5.4-7.7-8.1-2.7-2.7-5.6-5.3-8.3-7.9-2.6-2.7-5-5.4-7.7-8.1-2.7-2.7-5.6-5.3-8.3-7.9-2.6-2.7-5-5.4-7.7-8.1-2.7-2.7-5.6-5.3-8.3-7.9-2.6-2.7-5-5.4-7.7-8.1-2.7-2.7-5.6-5.3-8.3-7.9-2.6-2.7-5-5.4-7.7-8.1-2.7-2.7-5.6-5.3-8.3-7.9-2.6-2.7-5-5.4-7.7-8.1-2.7-2.7-5.6-5.3-8.3-7.9-2.6-2.7-5-5.4-7.7-8.1-2.7-2.7-5.6-5.3-8.3-7.9-2.6-2.7-5-5.4-7.7-8.1-2.7-2.7-5.6-5.3-8.3-7.9-2.6-2.7-5-5.4-7.7-8.1-2.7-2.7-5.6-5.3-8.3-7.9-2.6-2.7-5-5.4-7.7-8.1-2.7-2.7-5.6-5.3-8.3-7.9-2.6-2.7-5-5.4-7.7-8.1-2.7-2.7-5.6-5.3-8.3-7.9-2.6-2.7-5-5.4-7.7-8.1-2.7-2.7-5.6-5.3-8.3-7.9-2.6-2.7-5-5.4-7.7-8.1-2.7-2.7-5.6-5.3-8.3-7.9-2.6-2.7-5-5.4-7.7-8.1-2.7-2.7-5.6-5.3-8.3-7.9-2.6-2.7-5-5.4-7.7-8.1-2.7-2.7-5.6-5.3-8.3-7.9-2.6-2.7-5-5.4-7.7-8.1-2.7-2.7-5.6-5.3-8.3-7.9-2.6-2.7-5-5.4-7.7-8.1-2.7-2.7-5.6-5.3-8.3-7.9-2.6-2.7-5-5.4-7.7-8.1-112.4-112.4-261.9-174.4-421-174.4-159 0-308.5 61.9-421 174.4-112.4 112.4-174.3 261.8-174.3 420.8V1856c0 20.4 10.4 38.5 26.1 49.1 4.3 6.3 9.7 11.8 16 16 4.3 6.3 9.7 11.8 16 16 4.3 6.3 9.7 11.8 16 16 4.3 6.3 9.7 11.8 16 16 4.3 6.3 9.7 11.8 16 16 4.3 6.3 9.7 11.8 16 16 4.3 6.3 9.7 11.8 16 16 4.3 6.3 9.7 11.8 16 16 4.3 6.3 9.7 11.8 16 16 4.3 6.3 9.7 11.8 16 16 4.3 6.3 9.7 11.8 16 16 4.3 6.3 9.7 11.8 16 16 4.3 6.3 9.7 11.8 16 16 4.3 6.3 9.7 11.8 16 16 4.3 6.3 9.7 11.8 16 16 4.3 6.3 9.7 11.8 16 16 4.3 6.3 9.7 11.8 16 16 4.3 6.3 9.7 11.8 16 16 4.3 6.3 9.7 11.8 16 16 4.3 6.3 9.7 11.8 16 16 4.3 6.3 9.7 11.8 16 16 4.3 6.3 9.7 11.8 16 16 4.3 6.3 9.7 11.8 16 16 4.3 6.3 9.7 11.8 16 16 4.3 6.3 9.7 11.8 16 16 4.3 6.3 9.7 11.8 16 16 4.3 6.3 9.7 11.8 16 16 4.3 6.3 9.7 11.8 16 16 4.3 6.3 9.7 11.8 16 16 4.3 6.3 9.7 11.8 16 16 4.3 6.3 9.7 11.8 16 16 4.3 6.3 9.7 11.8 16 16 4.3 6.3 9.7 11.8 16 16 4.3 6.3 9.7 11.8 16 16 4.3 6.3 9.7 11.8 16 16 4.3 6.3 9.7 11.8 16 16 4.3 6.3 9.7 11.8 16 16 4.3 6.3 9.7 11.8 16 16 4.3 6.3 9.7 11.8 16 16 4.3 6.3 9.7 11.8 16 16 4.3 6.3 9.7 11.8 16 16 4.3 6.3 9.7 11.8 16 16 4.3 6.3 9.7 11.8 16 16 4.3 6.3 9.7 11.8 16 16 4.3 6.3 9.7 11.8 16 16 4.3 6.3 9.7 11.8 16 16 4.3 6.3 9.7 11.8 16 16 4.3 6.3 9.7 11.8 16 16 4.3 6.3 9.7 11.8 16 16 4.3 6.3 9.7 11.8 16 16 4.3 6.3 9.7 11.8 16 16 4.3 6.3 9.7 11.8 16 16 4.3 6.3 9.7 11.8 16 16 4.3 6.3 9.7 11.8 16 16 4.3 6.3 9.7 11.8 16 16 4.3 6.3 9.7 11.8 16 16 4.3 6.3 9.7 11.8 16 16 4.3 6.3 9.7 11.8 16 16 4.3 6.3 9.7 11.8 16 16 4.3 6.3 9.7 11.8 16 16 4.3 6.3 9.7 11.8 16 16 4.3 6.3 9.7 11.8 16 16 4.3 6.3 9.7 11.8 16 16 4.3 6.3 9.7 11.8 16 16 4.3 6.3 9.7 11.8 16 16 4.3 6.3 9.7 11.8 16 16 4.3 6.3 9.7 11.8 16 16 4.3 6.3 9.7 11.8 16 16 4.3 6.3 9.7 11.8 16 16 4.3 6.3 9.7 11.8 16 16 4.3 6.3 9.7 11.8 16 16 4.3 6.3 9.7 11.8 16 16 4.3 6.3 9.7 11.8 16 16 4.3 6.3 9.7 11.8 16 16 4.3 6.3 9.7 11.8 16 16 4.3 6.3 9.7 11.8 16 16 4.3 6.3 9.7 11.8 16 16 4.3 6.3 9.7 11.8 16 16 4.3 6.3 9.7 11.8 16 16 4.3 6.3 9.7 11.8 16 16 4.3 6.3 9.7 11.8 16 16 4.3 6.3 9.7 11.8 16 16 4.3 6.3 9.7 11.8 16 16 4.3 6.3 9.7 11.8 16 16 4.3 6.3 9.7 11.8 16 16 4.3 6.3 9.7 11.8 16 16 4.3 6.3 9.7 11.8 16 16 4.3 6.3 9.7 11.8 16 16 4.3 6.3 9.7 11.8 16 16 4.3 6.3 9.7 11.8 16 16 4.3 6.3 9.7 11.8 16 16 4.3 6.3 9.7 11.8 16 16 4.3 6.3 9.7 11.8 16 16 4.3 6.3 9.7 11.8 16 16 4.3 6.3 9.7 11.8 16 16 4.3 6.3 9.7 11.8 16 16 4.3 6.3 9.7 11.8 16 16 4.3 6.3 9.7 11.8 16 16 4.3 6.3 9.7 11.8 16 16 4.3 6.3 9.7 11.8 16 16 10.6 15.8 28.7 26.1 49.1 26.1 32.7 0 59.2-26.5 59.2-59.2v-393.2l2.7 2.7 5.2 5.2 10.8 10.8 5.2 5.2 16 16 10.8 10.8 5.2 5.2 10.8 10.8 16 16 16 16 16 16 16 16 16 16 32 32 16 16 16 16 16 16 32 32 16 16 32 32 16 16 16 16 16 16 32 32 16 16 16 16 16 16c11.6 11.6 26.7 17.3 41.9 17.3s30.3-5.8 41.9-17.3l226.4-226.4c3.2 3.5 6.7 6.8 10.6 9.4 4.3 6.3 9.7 11.8 16 16 4.3 6.3 9.7 11.8 16 16 4.3 6.3 9.7 11.8 16 16 4.3 6.3 9.7 11.8 16 16 4.3 6.3 9.7 11.8 16 16 4.3 6.3 9.7 11.8 16 16 4.3 6.3 9.7 11.8 16 16 4.3 6.3 9.7 11.8 16 16 4.3 6.3 9.7 11.8 16 16 4.3 6.3 9.7 11.8 16 16 4.3 6.3 9.7 11.8 16 16 4.3 6.3 9.7 11.8 16 16 4.3 6.3 9.7 11.8 16 16 10.6 15.8 28.7 26.1 49.1 26.1 32.7 0 59.2-26.5 59.2-59.2v-758.2c.5-.6.2-1.7.1-2.9z"/><g><path fill="#FAFAFA" d="M2721.3 2415.6c-666.2 0-1208.1-542-1208.1-1208.1S2055.1-.6 2721.3-.6c666.2 0 1208.1 542 1208.1 1208.1s-542 1208.1-1208.1 1208.1zm0-2297.8c-600.9 0-1089.7 488.8-1089.7 1089.7s488.9 1089.7 1089.7 1089.7S3811 1808.4 3811 1207.5 3322.1 117.8 2721.3 117.8z"/></g></svg>